<svg width="48" height="48" viewBox="0 0 48 48" fill="none" xmlns="http://www.w3.org/2000/svg">
<mask id="mask0_2_982" style="mask-type:alpha" maskUnits="userSpaceOnUse" x="0" y="0" width="48" height="48">
<rect width="48" height="48" rx="10" fill="#4F46BA"/>
</mask>
<g mask="url(#mask0_2_982)">
<rect width="48" height="48" rx="10" fill="#4F46BA"/>
<path fill-rule="evenodd" clip-rule="evenodd" d="M108.434 -33.1587C120.319 -29.2511 124.061 -12.7131 124.396 -0.160654C124.69 10.8456 114.519 18.6792 110.089 28.7813C106.541 36.8718 106.512 46.0432 101.078 53.0108C94.4596 61.4989 86.6121 69.7643 76.1761 72.2713C64.6678 75.0359 51.3591 74.3711 41.9874 67.2061C32.7789 60.1659 33.8444 46.3294 28.6592 35.943C22.5168 23.6392 7.99598 14.6677 8.88612 0.901685C9.79952 -13.2242 19.5033 -28.9184 33.1034 -32.7878C47.0863 -36.766 58.0305 -17.1379 72.5441 -17.2093C85.9305 -17.2752 95.7364 -37.3337 108.434 -33.1587Z" fill="#FDBC64"/>
</g>
</svg>
