<svg width="210" height="75" viewBox="0 0 210 75" fill="none" xmlns="http://www.w3.org/2000/svg">
<rect width="210" height="75" rx="10" fill="#4F46BA"/>
<mask id="mask0_2012_266" style="mask-type:alpha" maskUnits="userSpaceOnUse" x="0" y="0" width="210" height="75">
<rect width="210" height="75" rx="10" fill="#4F46BA"/>
</mask>
<g mask="url(#mask0_2012_266)">
<path fill-rule="evenodd" clip-rule="evenodd" d="M261.434 -25.1587C273.319 -21.2511 277.061 -4.71315 277.396 7.83935C277.69 18.8456 267.519 26.6792 263.089 36.7813C259.541 44.8718 259.512 54.0432 254.078 61.0108C247.46 69.4989 239.612 77.7642 229.176 80.2713C217.668 83.0359 204.359 82.3711 194.987 75.2061C185.779 68.1659 186.844 54.3294 181.659 43.943C175.517 31.6392 160.996 22.6677 161.886 8.90169C162.8 -5.2242 172.503 -20.9184 186.103 -24.7878C200.086 -28.766 211.031 -9.13787 225.544 -9.20933C238.93 -9.27525 248.736 -29.3337 261.434 -25.1587Z" fill="#FDBC64"/>
<path opacity="0.1" fill-rule="evenodd" clip-rule="evenodd" d="M248.434 -25.1587C260.319 -21.2511 264.061 -4.71315 264.396 7.83935C264.69 18.8456 254.519 26.6792 250.089 36.7813C246.541 44.8718 246.512 54.0432 241.078 61.0108C234.46 69.4989 226.612 77.7642 216.176 80.2713C204.668 83.0359 191.359 82.3711 181.987 75.2061C172.779 68.1659 173.844 54.3294 168.659 43.943C162.517 31.6392 147.996 22.6677 148.886 8.90169C149.8 -5.2242 159.503 -20.9184 173.103 -24.7878C187.086 -28.766 198.031 -9.13787 212.544 -9.20933C225.93 -9.27525 235.736 -29.3337 248.434 -25.1587Z" fill="#FDBC64"/>
</g>
</svg>
