<svg width="210" height="75" viewBox="0 0 210 75" fill="none" xmlns="http://www.w3.org/2000/svg">
<rect width="210" height="75" rx="10" fill="#4F46BA"/>
<mask id="mask0_2012_275" style="mask-type:alpha" maskUnits="userSpaceOnUse" x="0" y="0" width="210" height="75">
<rect width="210" height="75" rx="10" fill="#4F46BA"/>
</mask>
<g mask="url(#mask0_2012_275)">
<path fill-rule="evenodd" clip-rule="evenodd" d="M194.142 -21.6432C215.544 -27.8238 232.146 -3.01185 249.482 10.9269C261.771 20.8078 273.628 31.0419 278.363 46.0731C283.045 60.9365 280.511 76.4426 274.675 90.9063C268.136 107.112 259.217 122.254 244.084 131.033C224.797 142.221 201.526 154.392 181.287 145.082C160.813 135.666 153.718 110.2 150.384 87.9363C147.587 69.2609 157.846 52.9165 164.855 35.3655C173.089 14.744 172.783 -15.4751 194.142 -21.6432Z" fill="#84E8F4"/>
<path opacity="0.2" fill-rule="evenodd" clip-rule="evenodd" d="M184.142 -21.6432C205.544 -27.8238 222.146 -3.01185 239.482 10.9269C251.771 20.8078 263.628 31.0419 268.363 46.0731C273.045 60.9365 270.511 76.4426 264.675 90.9063C258.136 107.112 249.217 122.254 234.084 131.033C214.797 142.221 191.526 154.392 171.287 145.082C150.813 135.666 143.718 110.2 140.384 87.9363C137.587 69.2609 147.846 52.9165 154.855 35.3655C163.089 14.744 162.783 -15.4751 184.142 -21.6432Z" fill="#84E8F4"/>
</g>
</svg>
