<svg width="210" height="75" viewBox="0 0 210 75" fill="none" xmlns="http://www.w3.org/2000/svg">
<rect width="210" height="75" rx="10" fill="#4F46BA"/>
<mask id="mask0_2012_284" style="mask-type:alpha" maskUnits="userSpaceOnUse" x="0" y="0" width="210" height="75">
<rect width="210" height="75" rx="10" fill="#4F46BA"/>
</mask>
<g mask="url(#mask0_2012_284)">
<path fill-rule="evenodd" clip-rule="evenodd" d="M155.537 0.231545C155.471 -12.2786 169.966 -21.0764 181.763 -25.3786C192.106 -29.1509 202.763 -21.9924 213.749 -20.9979C222.547 -20.2015 231.254 -23.085 239.586 -20.1445C249.736 -16.5622 260.065 -11.7441 265.755 -2.64354C272.029 7.39205 275.623 20.2236 271.803 31.3849C268.05 42.3518 254.591 45.7333 246.388 53.9473C236.67 63.6775 232.771 80.295 219.435 83.8205C205.749 87.4381 187.787 83.2178 179.8 71.5492C171.59 59.5521 186.729 42.9436 182.054 29.2033C177.743 16.53 155.609 13.5981 155.537 0.231545Z" fill="#F9896B"/>
<path opacity="0.2" fill-rule="evenodd" clip-rule="evenodd" d="M145.537 3.23155C145.471 -9.2786 159.966 -18.0764 171.763 -22.3786C182.106 -26.1509 192.763 -18.9924 203.749 -17.9979C212.547 -17.2015 221.254 -20.085 229.586 -17.1445C239.736 -13.5622 250.065 -8.74414 255.755 0.356463C262.029 10.392 265.623 23.2236 261.803 34.3849C258.05 45.3518 244.591 48.7333 236.388 56.9473C226.67 66.6775 222.771 83.295 209.435 86.8205C195.749 90.4381 177.787 86.2178 169.8 74.5492C161.59 62.5521 176.729 45.9436 172.054 32.2033C167.743 19.53 145.609 16.5981 145.537 3.23155Z" fill="#F9896B"/>
</g>
</svg>
